<svg width="318" height="50" viewBox="0 0 318 50" fill="none" xmlns="http://www.w3.org/2000/svg">
<path d="M25.792 14.752V40H22.528V35.008C21.504 36.704 20.144 38 18.448 38.896C16.784 39.792 14.896 40.24 12.784 40.24C10.416 40.24 8.272 39.696 6.352 38.608C4.432 37.52 2.928 36 1.84 34.048C0.752 32.096 0.208 29.872 0.208 27.376C0.208 24.88 0.752 22.656 1.84 20.704C2.928 18.752 4.432 17.248 6.352 16.192C8.272 15.104 10.416 14.56 12.784 14.56C14.832 14.56 16.672 14.992 18.304 15.856C19.968 16.688 21.328 17.92 22.384 19.552V14.752H25.792ZM13.072 37.216C14.832 37.216 16.416 36.816 17.824 36.016C19.264 35.184 20.384 34.016 21.184 32.512C22.016 31.008 22.432 29.296 22.432 27.376C22.432 25.456 22.016 23.744 21.184 22.24C20.384 20.736 19.264 19.584 17.824 18.784C16.416 17.952 14.832 17.536 13.072 17.536C11.28 17.536 9.664 17.952 8.224 18.784C6.816 19.584 5.696 20.736 4.864 22.24C4.064 23.744 3.664 25.456 3.664 27.376C3.664 29.296 4.064 31.008 4.864 32.512C5.696 34.016 6.816 35.184 8.224 36.016C9.664 36.816 11.28 37.216 13.072 37.216ZM48.2913 14.56C50.6593 14.56 52.8033 15.104 54.7233 16.192C56.6433 17.248 58.1473 18.752 59.2353 20.704C60.3233 22.656 60.8673 24.88 60.8673 27.376C60.8673 29.904 60.3233 32.144 59.2353 34.096C58.1473 36.048 56.6433 37.568 54.7233 38.656C52.8353 39.712 50.6913 40.24 48.2913 40.24C46.2433 40.24 44.3873 39.824 42.7233 38.992C41.0913 38.128 39.7473 36.88 38.6913 35.248V49.312H35.2833V14.752H38.5473V19.744C39.5713 18.08 40.9153 16.8 42.5793 15.904C44.2753 15.008 46.1793 14.56 48.2913 14.56ZM48.0513 37.216C49.8113 37.216 51.4113 36.816 52.8513 36.016C54.2913 35.184 55.4113 34.016 56.2113 32.512C57.0433 31.008 57.4593 29.296 57.4593 27.376C57.4593 25.456 57.0433 23.76 56.2113 22.288C55.4113 20.784 54.2913 19.616 52.8513 18.784C51.4113 17.952 49.8113 17.536 48.0513 17.536C46.2593 17.536 44.6433 17.952 43.2032 18.784C41.7953 19.616 40.6753 20.784 39.8433 22.288C39.0433 23.76 38.6433 25.456 38.6433 27.376C38.6433 29.296 39.0433 31.008 39.8433 32.512C40.6753 34.016 41.7953 35.184 43.2032 36.016C44.6433 36.816 46.2593 37.216 48.0513 37.216ZM80.8225 14.56C83.1905 14.56 85.3345 15.104 87.2545 16.192C89.1745 17.248 90.6785 18.752 91.7665 20.704C92.8545 22.656 93.3985 24.88 93.3985 27.376C93.3985 29.904 92.8545 32.144 91.7665 34.096C90.6785 36.048 89.1745 37.568 87.2545 38.656C85.3665 39.712 83.2225 40.24 80.8225 40.24C78.7745 40.24 76.9185 39.824 75.2545 38.992C73.6225 38.128 72.2785 36.88 71.2225 35.248V49.312H67.8145V14.752H71.0785V19.744C72.1025 18.08 73.4465 16.8 75.1105 15.904C76.8065 15.008 78.7105 14.56 80.8225 14.56ZM80.5825 37.216C82.3425 37.216 83.9425 36.816 85.3825 36.016C86.8225 35.184 87.9425 34.016 88.7425 32.512C89.5745 31.008 89.9905 29.296 89.9905 27.376C89.9905 25.456 89.5745 23.76 88.7425 22.288C87.9425 20.784 86.8225 19.616 85.3825 18.784C83.9425 17.952 82.3425 17.536 80.5825 17.536C78.7905 17.536 77.1745 17.952 75.7345 18.784C74.3265 19.616 73.2065 20.784 72.3745 22.288C71.5745 23.76 71.1745 25.456 71.1745 27.376C71.1745 29.296 71.5745 31.008 72.3745 32.512C73.2065 34.016 74.3265 35.184 75.7345 36.016C77.1745 36.816 78.7905 37.216 80.5825 37.216ZM118.294 7.024C116.822 7.024 115.702 7.424 114.934 8.224C114.198 9.024 113.83 10.208 113.83 11.776V14.752H121.606V17.632H113.926V40H110.518V11.632C110.518 9.328 111.174 7.504 112.486 6.16C113.83 4.816 115.718 4.144 118.15 4.144C119.11 4.144 120.038 4.288 120.934 4.576C121.83 4.832 122.582 5.216 123.19 5.728L122.038 8.272C121.046 7.44 119.798 7.024 118.294 7.024ZM130.054 14.752H133.462V40H130.054V14.752ZM131.782 9.232C131.078 9.232 130.486 8.992 130.006 8.512C129.526 8.032 129.286 7.456 129.286 6.784C129.286 6.144 129.526 5.584 130.006 5.104C130.486 4.624 131.078 4.384 131.782 4.384C132.486 4.384 133.078 4.624 133.558 5.104C134.038 5.552 134.278 6.096 134.278 6.736C134.278 7.44 134.038 8.032 133.558 8.512C133.078 8.992 132.486 9.232 131.782 9.232ZM155.819 14.56C158.987 14.56 161.499 15.488 163.355 17.344C165.243 19.168 166.187 21.84 166.187 25.36V40H162.779V25.696C162.779 23.072 162.123 21.072 160.811 19.696C159.499 18.32 157.627 17.632 155.195 17.632C152.475 17.632 150.315 18.448 148.715 20.08C147.147 21.68 146.363 23.904 146.363 26.752V40H142.955V14.752H146.219V19.408C147.147 17.872 148.427 16.688 150.059 15.856C151.723 14.992 153.643 14.56 155.819 14.56ZM220.038 14.56C223.206 14.56 225.718 15.488 227.574 17.344C229.462 19.168 230.406 21.84 230.406 25.36V40H226.998V25.696C226.998 23.072 226.342 21.072 225.03 19.696C223.718 18.32 221.846 17.632 219.414 17.632C216.694 17.632 214.534 18.448 212.934 20.08C211.366 21.68 210.582 23.904 210.582 26.752V40H207.174V14.752H210.438V19.408C211.366 17.872 212.646 16.688 214.278 15.856C215.942 14.992 217.862 14.56 220.038 14.56ZM250.216 40.24C247.72 40.24 245.48 39.696 243.496 38.608C241.544 37.52 240.008 36 238.888 34.048C237.768 32.064 237.208 29.84 237.208 27.376C237.208 24.912 237.768 22.704 238.888 20.752C240.008 18.8 241.544 17.28 243.496 16.192C245.48 15.104 247.72 14.56 250.216 14.56C252.392 14.56 254.328 14.992 256.024 15.856C257.752 16.688 259.112 17.92 260.104 19.552L257.56 21.28C256.728 20.032 255.672 19.104 254.392 18.496C253.112 17.856 251.72 17.536 250.216 17.536C248.392 17.536 246.744 17.952 245.272 18.784C243.832 19.584 242.696 20.736 241.864 22.24C241.064 23.744 240.664 25.456 240.664 27.376C240.664 29.328 241.064 31.056 241.864 32.56C242.696 34.032 243.832 35.184 245.272 36.016C246.744 36.816 248.392 37.216 250.216 37.216C251.72 37.216 253.112 36.912 254.392 36.304C255.672 35.696 256.728 34.768 257.56 33.52L260.104 35.248C259.112 36.88 257.752 38.128 256.024 38.992C254.296 39.824 252.36 40.24 250.216 40.24ZM277.177 37.216C278.745 37.216 280.185 36.944 281.497 36.4C282.841 35.824 283.977 34.992 284.905 33.904L286.825 36.112C285.705 37.456 284.313 38.48 282.649 39.184C280.985 39.888 279.145 40.24 277.129 40.24C274.537 40.24 272.233 39.696 270.217 38.608C268.201 37.488 266.633 35.952 265.513 34C264.393 32.048 263.833 29.84 263.833 27.376C263.833 24.912 264.361 22.704 265.417 20.752C266.505 18.8 267.993 17.28 269.881 16.192C271.769 15.104 273.913 14.56 276.313 14.56C278.553 14.56 280.569 15.072 282.361 16.096C284.185 17.12 285.625 18.544 286.681 20.368C287.769 22.192 288.345 24.272 288.409 26.608L267.673 30.64C268.313 32.688 269.465 34.304 271.129 35.488C272.825 36.64 274.841 37.216 277.177 37.216ZM276.313 17.488C274.553 17.488 272.969 17.904 271.561 18.736C270.185 19.536 269.097 20.672 268.297 22.144C267.529 23.584 267.145 25.248 267.145 27.136C267.145 27.616 267.161 27.968 267.193 28.192L285.001 24.736C284.617 22.624 283.641 20.896 282.073 19.552C280.505 18.176 278.585 17.488 276.313 17.488Z" fill="white"/>
<path d="M100.682 40.24C99.9778 40.24 99.3698 39.984 98.8578 39.472C98.3778 38.96 98.1378 38.336 98.1378 37.6C98.1378 36.864 98.3778 36.256 98.8578 35.776C99.3698 35.264 99.9778 35.008 100.682 35.008C101.386 35.008 101.994 35.264 102.506 35.776C103.018 36.256 103.274 36.864 103.274 37.6C103.274 38.336 103.018 38.96 102.506 39.472C101.994 39.984 101.386 40.24 100.682 40.24ZM317.858 31.12C317.858 33.584 316.914 35.68 315.026 37.408C313.138 39.104 310.37 40.048 306.722 40.24V45.76H304.322V40.288C301.986 40.16 299.778 39.712 297.698 38.944C295.65 38.144 294.034 37.136 292.85 35.92L294.242 33.184C295.362 34.272 296.818 35.184 298.61 35.92C300.434 36.656 302.338 37.088 304.322 37.216V24.592C302.114 24.048 300.274 23.472 298.802 22.864C297.33 22.224 296.098 21.312 295.106 20.128C294.146 18.912 293.666 17.312 293.666 15.328C293.666 12.864 294.562 10.8 296.354 9.136C298.146 7.44 300.802 6.448 304.322 6.16V0.639997H306.722V6.112C308.546 6.176 310.306 6.48 312.002 7.024C313.73 7.536 315.218 8.224 316.466 9.088L315.266 11.92C313.954 11.088 312.562 10.432 311.09 9.952C309.618 9.472 308.162 9.2 306.722 9.136V21.856C309.09 22.432 311.026 23.024 312.53 23.632C314.034 24.208 315.298 25.104 316.322 26.32C317.346 27.536 317.858 29.136 317.858 31.12ZM297.17 15.232C297.17 16.896 297.778 18.16 298.994 19.024C300.242 19.888 302.018 20.624 304.322 21.232V9.232C301.954 9.424 300.162 10.08 298.946 11.2C297.762 12.288 297.17 13.632 297.17 15.232ZM306.722 37.216C309.25 37.024 311.154 36.4 312.434 35.344C313.714 34.288 314.354 32.944 314.354 31.312C314.354 29.584 313.698 28.288 312.386 27.424C311.074 26.56 309.186 25.824 306.722 25.216V37.216Z" fill="#12A454"/>
<path d="M201.744 31.168H195.024V40H191.568V31.168H172.608V28.672L190.416 6.4H194.256L177.072 28.096H191.664V20.32H195.024V28.096H201.744V31.168Z" fill="#E92929"/>
</svg>
