<svg width="318" height="50" viewBox="0 0 318 50" fill="none" xmlns="http://www.w3.org/2000/svg">
<path d="M25.792 14.752V40H22.528V35.008C21.504 36.704 20.144 38 18.448 38.896C16.784 39.792 14.896 40.24 12.784 40.24C10.416 40.24 8.272 39.696 6.352 38.608C4.432 37.52 2.928 36 1.84 34.048C0.752 32.096 0.208 29.872 0.208 27.376C0.208 24.88 0.752 22.656 1.84 20.704C2.928 18.752 4.432 17.248 6.352 16.192C8.272 15.104 10.416 14.56 12.784 14.56C14.832 14.56 16.672 14.992 18.304 15.856C19.968 16.688 21.328 17.92 22.384 19.552V14.752H25.792ZM13.072 37.216C14.832 37.216 16.416 36.816 17.824 36.016C19.264 35.184 20.384 34.016 21.184 32.512C22.016 31.008 22.432 29.296 22.432 27.376C22.432 25.456 22.016 23.744 21.184 22.24C20.384 20.736 19.264 19.584 17.824 18.784C16.416 17.952 14.832 17.536 13.072 17.536C11.28 17.536 9.664 17.952 8.224 18.784C6.816 19.584 5.696 20.736 4.864 22.24C4.064 23.744 3.664 25.456 3.664 27.376C3.664 29.296 4.064 31.008 4.864 32.512C5.696 34.016 6.816 35.184 8.224 36.016C9.664 36.816 11.28 37.216 13.072 37.216ZM48.2913 14.56C50.6593 14.56 52.8033 15.104 54.7233 16.192C56.6433 17.248 58.1473 18.752 59.2353 20.704C60.3233 22.656 60.8673 24.88 60.8673 27.376C60.8673 29.904 60.3233 32.144 59.2353 34.096C58.1473 36.048 56.6433 37.568 54.7233 38.656C52.8353 39.712 50.6913 40.24 48.2913 40.24C46.2433 40.24 44.3873 39.824 42.7233 38.992C41.0913 38.128 39.7473 36.88 38.6913 35.248V49.312H35.2833V14.752H38.5473V19.744C39.5713 18.08 40.9153 16.8 42.5793 15.904C44.2753 15.008 46.1793 14.56 48.2913 14.56ZM48.0513 37.216C49.8113 37.216 51.4113 36.816 52.8513 36.016C54.2913 35.184 55.4113 34.016 56.2113 32.512C57.0433 31.008 57.4593 29.296 57.4593 27.376C57.4593 25.456 57.0433 23.76 56.2113 22.288C55.4113 20.784 54.2913 19.616 52.8513 18.784C51.4113 17.952 49.8113 17.536 48.0513 17.536C46.2593 17.536 44.6433 17.952 43.2032 18.784C41.7953 19.616 40.6753 20.784 39.8433 22.288C39.0433 23.76 38.6433 25.456 38.6433 27.376C38.6433 29.296 39.0433 31.008 39.8433 32.512C40.6753 34.016 41.7953 35.184 43.2032 36.016C44.6433 36.816 46.2593 37.216 48.0513 37.216ZM80.8225 14.56C83.1905 14.56 85.3345 15.104 87.2545 16.192C89.1745 17.248 90.6785 18.752 91.7665 20.704C92.8545 22.656 93.3985 24.88 93.3985 27.376C93.3985 29.904 92.8545 32.144 91.7665 34.096C90.6785 36.048 89.1745 37.568 87.2545 38.656C85.3665 39.712 83.2225 40.24 80.8225 40.24C78.7745 40.24 76.9185 39.824 75.2545 38.992C73.6225 38.128 72.2785 36.88 71.2225 35.248V49.312H67.8145V14.752H71.0785V19.744C72.1025 18.08 73.4465 16.8 75.1105 15.904C76.8065 15.008 78.7105 14.56 80.8225 14.56ZM80.5825 37.216C82.3425 37.216 83.9425 36.816 85.3825 36.016C86.8225 35.184 87.9425 34.016 88.7425 32.512C89.5745 31.008 89.9905 29.296 89.9905 27.376C89.9905 25.456 89.5745 23.76 88.7425 22.288C87.9425 20.784 86.8225 19.616 85.3825 18.784C83.9425 17.952 82.3425 17.536 80.5825 17.536C78.7905 17.536 77.1745 17.952 75.7345 18.784C74.3265 19.616 73.2065 20.784 72.3745 22.288C71.5745 23.76 71.1745 25.456 71.1745 27.376C71.1745 29.296 71.5745 31.008 72.3745 32.512C73.2065 34.016 74.3265 35.184 75.7345 36.016C77.1745 36.816 78.7905 37.216 80.5825 37.216ZM99.9786 40.24C99.2746 40.24 98.6666 39.984 98.1546 39.472C97.6746 38.96 97.4346 38.336 97.4346 37.6C97.4346 36.864 97.6746 36.256 98.1546 35.776C98.6666 35.264 99.2746 35.008 99.9786 35.008C100.683 35.008 101.291 35.264 101.803 35.776C102.315 36.256 102.571 36.864 102.571 37.6C102.571 38.336 102.315 38.96 101.803 39.472C101.291 39.984 100.683 40.24 99.9786 40.24ZM117.591 7.024C116.119 7.024 114.999 7.424 114.231 8.224C113.495 9.024 113.127 10.208 113.127 11.776V14.752H120.903V17.632H113.223V40H109.815V11.632C109.815 9.328 110.471 7.504 111.783 6.16C113.127 4.816 115.015 4.144 117.447 4.144C118.407 4.144 119.335 4.288 120.231 4.576C121.127 4.832 121.879 5.216 122.487 5.728L121.335 8.272C120.343 7.44 119.095 7.024 117.591 7.024ZM129.351 14.752H132.759V40H129.351V14.752ZM131.079 9.232C130.375 9.232 129.783 8.992 129.302 8.512C128.823 8.032 128.583 7.456 128.583 6.784C128.583 6.144 128.823 5.584 129.302 5.104C129.783 4.624 130.375 4.384 131.079 4.384C131.783 4.384 132.375 4.624 132.855 5.104C133.335 5.552 133.575 6.096 133.575 6.736C133.575 7.44 133.335 8.032 132.855 8.512C132.375 8.992 131.783 9.232 131.079 9.232ZM155.116 14.56C158.284 14.56 160.796 15.488 162.652 17.344C164.54 19.168 165.484 21.84 165.484 25.36V40H162.076V25.696C162.076 23.072 161.42 21.072 160.108 19.696C158.796 18.32 156.924 17.632 154.492 17.632C151.772 17.632 149.612 18.448 148.012 20.08C146.444 21.68 145.66 23.904 145.66 26.752V40H142.252V14.752H145.516V19.408C146.444 17.872 147.724 16.688 149.356 15.856C151.02 14.992 152.94 14.56 155.116 14.56ZM219.335 14.56C222.503 14.56 225.015 15.488 226.871 17.344C228.759 19.168 229.703 21.84 229.703 25.36V40H226.295V25.696C226.295 23.072 225.639 21.072 224.327 19.696C223.015 18.32 221.143 17.632 218.711 17.632C215.991 17.632 213.831 18.448 212.231 20.08C210.663 21.68 209.879 23.904 209.879 26.752V40H206.471V14.752H209.735V19.408C210.663 17.872 211.943 16.688 213.575 15.856C215.239 14.992 217.159 14.56 219.335 14.56ZM249.513 40.24C247.017 40.24 244.777 39.696 242.793 38.608C240.841 37.52 239.305 36 238.185 34.048C237.065 32.064 236.505 29.84 236.505 27.376C236.505 24.912 237.065 22.704 238.185 20.752C239.305 18.8 240.841 17.28 242.793 16.192C244.777 15.104 247.017 14.56 249.513 14.56C251.689 14.56 253.625 14.992 255.321 15.856C257.049 16.688 258.409 17.92 259.401 19.552L256.857 21.28C256.025 20.032 254.969 19.104 253.689 18.496C252.409 17.856 251.017 17.536 249.513 17.536C247.689 17.536 246.041 17.952 244.569 18.784C243.129 19.584 241.993 20.736 241.161 22.24C240.361 23.744 239.961 25.456 239.961 27.376C239.961 29.328 240.361 31.056 241.161 32.56C241.993 34.032 243.129 35.184 244.569 36.016C246.041 36.816 247.689 37.216 249.513 37.216C251.017 37.216 252.409 36.912 253.689 36.304C254.969 35.696 256.025 34.768 256.857 33.52L259.401 35.248C258.409 36.88 257.049 38.128 255.321 38.992C253.593 39.824 251.657 40.24 249.513 40.24ZM276.474 37.216C278.042 37.216 279.482 36.944 280.794 36.4C282.138 35.824 283.274 34.992 284.202 33.904L286.122 36.112C285.002 37.456 283.61 38.48 281.946 39.184C280.282 39.888 278.442 40.24 276.426 40.24C273.834 40.24 271.53 39.696 269.514 38.608C267.498 37.488 265.93 35.952 264.81 34C263.69 32.048 263.13 29.84 263.13 27.376C263.13 24.912 263.658 22.704 264.714 20.752C265.802 18.8 267.29 17.28 269.178 16.192C271.066 15.104 273.21 14.56 275.61 14.56C277.85 14.56 279.866 15.072 281.658 16.096C283.482 17.12 284.922 18.544 285.978 20.368C287.066 22.192 287.642 24.272 287.706 26.608L266.97 30.64C267.61 32.688 268.762 34.304 270.426 35.488C272.122 36.64 274.138 37.216 276.474 37.216ZM275.61 17.488C273.85 17.488 272.266 17.904 270.858 18.736C269.482 19.536 268.394 20.672 267.594 22.144C266.826 23.584 266.442 25.248 266.442 27.136C266.442 27.616 266.458 27.968 266.49 28.192L284.298 24.736C283.914 22.624 282.938 20.896 281.37 19.552C279.802 18.176 277.882 17.488 275.61 17.488Z" fill="black"/>
<path d="M201.04 31.168H194.32V40H190.864V31.168H171.904V28.672L189.712 6.4H193.552L176.368 28.096H190.96V20.32H194.32V28.096H201.04V31.168Z" fill="#E92929"/>
<path d="M317.155 31.12C317.155 33.584 316.211 35.68 314.323 37.408C312.435 39.104 309.667 40.048 306.019 40.24V45.76H303.619V40.288C301.283 40.16 299.075 39.712 296.995 38.944C294.947 38.144 293.331 37.136 292.147 35.92L293.539 33.184C294.659 34.272 296.115 35.184 297.907 35.92C299.731 36.656 301.635 37.088 303.619 37.216V24.592C301.411 24.048 299.571 23.472 298.099 22.864C296.627 22.224 295.395 21.312 294.403 20.128C293.443 18.912 292.963 17.312 292.963 15.328C292.963 12.864 293.859 10.8 295.651 9.136C297.443 7.44 300.099 6.448 303.619 6.16V0.639997H306.019V6.112C307.843 6.176 309.603 6.48 311.299 7.024C313.027 7.536 314.515 8.224 315.763 9.088L314.563 11.92C313.251 11.088 311.859 10.432 310.387 9.952C308.915 9.472 307.459 9.2 306.019 9.136V21.856C308.387 22.432 310.323 23.024 311.827 23.632C313.331 24.208 314.595 25.104 315.619 26.32C316.643 27.536 317.155 29.136 317.155 31.12ZM296.467 15.232C296.467 16.896 297.075 18.16 298.291 19.024C299.539 19.888 301.315 20.624 303.619 21.232V9.232C301.251 9.424 299.459 10.08 298.243 11.2C297.059 12.288 296.467 13.632 296.467 15.232ZM306.019 37.216C308.547 37.024 310.451 36.4 311.731 35.344C313.011 34.288 313.651 32.944 313.651 31.312C313.651 29.584 312.995 28.288 311.683 27.424C310.371 26.56 308.483 25.824 306.019 25.216V37.216Z" fill="#12A454"/>
</svg>
